#!OML:ASF G:\JayActor3\Patient Classification 1\Patient 1\Session 6\male.ASF
:FULLY-SPECIFIED
:DEGREES
1540
root 10.2153 16.481 -5.67662 15.0394 -61.1609 -11.5653
lowerback 6.57957 -6.75753 -5.02103
upperback 3.46036 -9.32411 1.95349
thorax 1.06597 -4.8128 5.22489
lowerneck 4.91122 -16.0509 -7.81804
upperneck -0.00584092 -22.5376 19.1602
head 2.32016 -11.54 6.27362
rclavicle 4.96962e-014 -1.66979e-014
rhumerus -40.3156 -3.16149 -79.1787
rradius 43.7539
rwrist -4.26059
rhand -18.3703 -15.8867
rfingers 7.12502
rthumb 7.91299 -45.7186
lclavicle 4.96962e-014 -1.66979e-014
lhumerus -29.3188 -24.5428 90.7929
lradius 37.391
lwrist 26.8917
lhand -17.3934 9.01052
lfingers 7.12502
lthumb 8.85575 38.8047
rfemur -19.5502 -2.04451 19.6894
rtibia 40.7355
rfoot -30.0347 -19.8716
rtoes 5.19002
lfemur -18.6617 -10.699 -15.9642
ltibia 26.1162
lfoot -65.313 33.8643
ltoes 35.2866
1541
root 10.2133 16.485 -5.73758 15.3954 -61.7717 -11.8646
lowerback 6.59463 -6.68976 -4.95919
upperback 3.45686 -9.23136 1.94411
thorax 1.03028 -4.76395 5.18328
lowerneck 4.89121 -16.0305 -7.83681
upperneck -0.28394 -22.4842 19.3603
head 2.26096 -11.5282 6.34615
rclavicle -1.41137e-014 1.59028e-014
rhumerus -40.3355 -3.52942 -78.927
rradius 43.1375
rwrist -4.09083
rhand -18.4399 -16.0375
rfingers 7.12502
rthumb 7.84574 -45.872
lclavicle -1.41137e-014 1.59028e-014
lhumerus -29.7267 -24.1171 90.6536
lradius 37.3442
lwrist 26.8647
lhand -17.5493 8.8214
lfingers 7.12502
lthumb 8.70531 38.6219
rfemur -19.3566 -2.81181 19.5019
rtibia 40.5244
rfoot -30.4723 -20.4437
rtoes 5.87723
lfemur -18.6197 -10.7569 -15.6522
ltibia 25.9241
lfoot -66.1872 33.5166
ltoes 35.668
1542
root 10.211 16.4888 -5.79972 15.7494 -62.3996 -12.1644
lowerback 6.60719 -6.62301 -4.90609
upperback 3.45462 -9.14036 1.93231
thorax 0.998735 -4.71628 5.14327
lowerneck 4.87152 -16.0063 -7.85491
upperneck -0.558345 -22.4254 19.5537
head 2.2012 -11.5138 6.41726
rclavicle -4.23411e-014 2.22639e-014
rhumerus -40.3625 -3.87358 -78.6829
rradius 42.5782
rwrist -3.91729
rhand -18.4932 -16.1811
rfingers 7.12502
rthumb 7.79434 -46.0175
lclavicle -4.23411e-014 2.22639e-014
lhumerus -30.1138 -23.6685 90.5043
lradius 37.2607
lwrist 26.8116
lhand -17.7216 8.6256
lfingers 7.12502
lthumb 8.53904 38.4329
rfemur -19.1918 -3.59394 19.311
rtibia 40.3276
rfoot -30.9154 -21.0734
rtoes 6.49569
lfemur -18.5575 -10.796 -15.3475
ltibia 25.7175
lfoot -67.0465 33.1715
ltoes 36.0239
1543
root 10.2083 16.4925 -5.86323 16.0934 -63.0433 -12.4538
lowerback 6.61725 -6.55791 -4.86769
upperback 3.45296 -9.05227 1.91707
thorax 0.971532 -4.67043 5.10713
lowerneck 4.85161 -15.9787 -7.87217
upperneck -0.828378 -22.3617 19.7415
head 2.14134 -11.497 6.4871
rclavicle -9.95911e-014 2.62396e-014
rhumerus -40.3948 -4.19767 -78.446
rradius 42.0757
rwrist -3.73596
rhand -18.5272 -16.3121
rfingers 7.12502
rthumb 7.76154 -46.1497
lclavicle -9.95911e-014 2.62396e-014
lhumerus -30.4784 -23.199 90.3441
lradius 37.1376
lwrist 26.7408
lhand -17.9053 8.43249
lfingers 7.12502
lthumb 8.36177 38.247
rfemur -19.0589 -4.39051 19.1139
rtibia 40.1492
rfoot -31.3723 -21.7564
rtoes 7.07848
lfemur -18.4769 -10.8188 -15.0546
ltibia 25.4951
lfoot -67.8908 32.8261
ltoes 36.3587
1544
root 10.2053 16.4959 -5.92832 16.4208 -63.7012 -12.724
lowerback 6.62566 -6.49506 -4.84846
upperback 3.45102 -8.96819 1.89779
thorax 0.947979 -4.62696 5.07688
lowerneck 4.83093 -15.9477 -7.88856
upperneck -1.09284 -22.2937 19.9243
head 2.08196 -11.4781 6.55567
rclavicle 4.41302e-014 2.8625e-014
rhumerus -40.4324 -4.50391 -78.2168
rradius 41.6302
rwrist -3.54609
rhand -18.5445 -16.4239
rfingers 7.12502
rthumb 7.74483 -46.2621
lclavicle 4.41302e-014 2.8625e-014
lhumerus -30.8194 -22.7099 90.1722
lradius 36.9727
lwrist 26.6593
lhand -18.095 8.25111
lfingers 7.12502
lthumb 8.17866 38.0728
rfemur -18.959 -5.19588 18.9096
rtibia 39.9912
rfoot -31.8612 -22.4809
rtoes 7.67107
lfemur -18.3805 -10.8278 -14.7759
ltibia 25.2577
lfoot -68.7203 32.4753
ltoes 36.6779
1545
root 10.2023 16.4989 -5.99513 16.73 -64.3721 -12.9729
lowerback 6.63312 -6.4347 -4.84931
upperback 3.44795 -8.8885 1.87459
thorax 0.926959 -4.58601 5.05335
lowerneck 4.80943 -15.9138 -7.90465
upperneck -1.35055 -22.2223 20.103
head 2.02368 -11.4574 6.62316
rclavicle 3.91606e-014 -2.94201e-014
rhumerus -40.4749 -4.79223 -77.9968
rradius 41.2405
rwrist -3.35239
rhand -18.5521 -16.5137
rfingers 7.12502
rthumb 7.73747 -46.3522
lclavicle 3.91606e-014 -2.94201e-014
lhumerus -31.1371 -22.2019 89.9881
lradius 36.7656
lwrist 26.5713
lhand -18.2838 8.08891
lfingers 7.12502
lthumb 7.99647 37.9176
rfemur -18.8914 -5.99933 18.7011
rtibia 39.8526
rfoot -32.4038 -23.233
rtoes 8.31181
lfemur -18.2716 -10.8244 -14.5111
ltibia 25.008
lfoot -69.5356 32.1127
ltoes 36.9854
1546
root 10.199 16.5013 -6.06376 17.0262 -65.0558 -13.2058
lowerback 6.64031 -6.37662 -4.86802
upperback 3.44275 -8.81282 1.84834
thorax 0.906728 -4.54729 5.03645
lowerneck 4.78709 -15.877 -7.921
upperneck -1.59952 -22.1479 20.2773
head 1.96719 -11.4351 6.68943
rclavicle 2.78299e-014 -3.97569e-015
rhumerus -40.5226 -5.05995 -77.7879
rradius 40.9041
rwrist -3.16394
rhand -18.5598 -16.5813
rfingers 7.12502
rthumb 7.73006 -46.42
lclavicle 2.78299e-014 -3.97569e-015
lhumerus -31.4327 -21.6742 89.792
lradius 36.5159
lwrist 26.4789
lhand -18.4646 7.94697
lfingers 7.12502
lthumb 7.82195 37.7823
rfemur -18.8543 -6.7873 18.4945
rtibia 39.731
rfoot -33.0188 -23.9986
rtoes 9.01787
lfemur -18.1536 -10.8078 -14.2566
ltibia 24.7512
lfoot -70.3375 31.7312
ltoes 37.2843
1547
root 10.1957 16.503 -6.13422 17.3196 -65.7531 -13.4338
lowerback 6.6473 -6.3203 -4.8999
upperback 3.43439 -8.74021 1.82039
thorax 0.885495 -4.51017 5.0251
lowerneck 4.76455 -15.8376 -7.93815
upperneck -1.83793 -22.0712 20.4464
head 1.9129 -11.4112 6.75421
rclavicle -2.22639e-014 -5.56597e-015
rhumerus -40.575 -5.30415 -77.5919
rradius 40.6165
rwrist -2.98897
rhand -18.5766 -16.6316
rfingers 7.12502
rthumb 7.71384 -46.471
lclavicle -2.22639e-014 -5.56597e-015
lhumerus -31.7085 -21.1254 89.5843
lradius 36.2249
lwrist 26.3817
lhand -18.6308 7.82158
lfingers 7.12502
lthumb 7.66148 37.6628
rfemur -18.8459 -7.54564 18.2976
rtibia 39.6231
rfoot -33.7174 -24.7679
rtoes 9.77857
lfemur -18.03 -10.7762 -14.0074
ltibia 24.4937
lfoot -71.1269 31.3241
ltoes 37.5768
1548
root 10.1923 16.504 -6.20644 17.6247 -66.4652 -13.6728
lowerback 6.65383 -6.26508 -4.93884
upperback 3.42231 -8.66945 1.7924
thorax 0.861944 -4.47391 5.01775
lowerneck 4.74182 -15.7953 -7.95698
upperneck -2.064 -21.9921 20.6089
head 1.86128 -11.3858 6.81715
rclavicle 3.00165e-014 -3.18055e-015
rhumerus -40.6304 -5.52244 -77.4092
rradius 40.3727
rwrist -2.83465
rhand -18.609 -16.6739
rfingers 7.12502
rthumb 7.68254 -46.5144
lclavicle 3.00165e-014 -3.18055e-015
lhumerus -31.9663 -20.5529 89.365
lradius 35.8944
lwrist 26.2762
lhand -18.7756 7.70474
lfingers 7.12502
lthumb 7.5218 37.551
rfemur -18.864 -8.26295 18.1188
rtibia 39.5261
rfoot -34.5018 -25.5322
rtoes 10.5701
lfemur -17.9038 -10.7266 -13.7572
ltibia 24.2421
lfoot -71.9051 30.8861
ltoes 37.8637
1549
root 10.1886 16.5041 -6.28033 17.957 -67.193 -13.9399
lowerback 6.65897 -6.21069 -4.97869
upperback 3.40679 -8.5998 1.76611
thorax 0.836127 -4.43807 5.01269
lowerneck 4.71779 -15.7498 -7.97819
upperneck -2.27586 -21.9103 20.7633
head 1.81287 -11.3583 6.87774
rclavicle 3.22031e-014 -4.6118e-014
rhumerus -40.6855 -5.71339 -77.24
rradius 40.1677
rwrist -2.70532
rhand -18.6588 -16.7191
rfingers 7.12502
rthumb 7.63448 -46.5613
lclavicle 3.22031e-014 -4.6118e-014
lhumerus -32.2069 -19.9537 89.134
lradius 35.5278
lwrist 26.1578
lhand -18.8954 7.58998
lfingers 7.12502
lthumb 7.40608 37.4403
rfemur -18.9061 -8.93 17.9659
rtibia 39.438
rfoot -35.3703 -26.2844
rtoes 11.3693
lfemur -17.7764 -10.6568 -13.5005
ltibia 24.0015
lfoot -72.6727 30.4159
ltoes 38.1442
